<?xml version="1.0" encoding="UTF-8" standalone="no"?>
<!DOCTYPE svg PUBLIC "-//W3C//DTD SVG 1.1//EN" "http://www.w3.org/Graphics/SVG/1.1/DTD/svg11.dtd">
<svg xmlns="http://www.w3.org/2000/svg" xmlns:xl="http://www.w3.org/1999/xlink" xmlns:dc="http://purl.org/dc/elements/1.1/" version="1.1" viewBox="113 -6 813 813" width="813" height="813">
  <defs/>
  <metadata> Produced by OmniGraffle 7.18.4\n2021-03-10 06:41:06 +0000</metadata>
  <g id="Canvas_1" stroke-opacity="1" stroke="none" fill-opacity="1" stroke-dasharray="none" fill="none">
    <title>Canvas 1</title>
    <g id="Canvas_1_Layer_1">
      <title>Layer 1</title>
      <g id="Graphic_6">
        <path d="M 519.8042 25.581193 C 313.0282 25.581193 144.8042 193.8052 144.8042 400.5812 C 144.8042 607.3572 313.0282 775.5812 519.8042 775.5812 C 726.5802 775.5812 894.8042 607.3572 894.8042 400.5812 C 894.8042 193.8052 726.5802 25.581193 519.8042 25.581193 Z M 519.8042 .58119346 C 740.7182 .58119346 919.8042 179.6672 919.8042 400.5812 C 919.8042 621.4952 740.7182 800.5812 519.8042 800.5812 C 298.8902 800.5812 119.8042 621.4952 119.8042 400.5812 C 119.8042 179.6672 298.8902 .58119346 519.8042 .58119346 Z" fill="#707070"/>
        <path d="M 519.8042 25.581193 C 313.0282 25.581193 144.8042 193.8052 144.8042 400.5812 C 144.8042 607.3572 313.0282 775.5812 519.8042 775.5812 C 726.5802 775.5812 894.8042 607.3572 894.8042 400.5812 C 894.8042 193.8052 726.5802 25.581193 519.8042 25.581193 Z M 519.8042 .58119346 C 740.7182 .58119346 919.8042 179.6672 919.8042 400.5812 C 919.8042 621.4952 740.7182 800.5812 519.8042 800.5812 C 298.8902 800.5812 119.8042 621.4952 119.8042 400.5812 C 119.8042 179.6672 298.8902 .58119346 519.8042 .58119346 Z" stroke="#626264" stroke-linecap="butt" stroke-linejoin="round" stroke-width="12"/>
      </g>
      <g id="Group_8">
        <g id="Graphic_4">
          <path d="M 576.039 588.398 C 576.039 581.216 573.829 575.138 569.962 570.718 C 565.542 566.298 560.017 563.536 552.835 561.326 L 547.31 562.426 C 535.2188 559.435 523.6638 554.5892 513.056 548.061 C 508.55885 545.0944 504.3093 541.76855 500.349 538.116 L 483.774 526.516 C 492.7727 515.2143 500.5494 502.99147 506.974 490.052 C 513.527 477.4349 519.06935 464.31815 523.549 450.825 C 527.34265 437.3935 530.29604 423.7387 532.392 409.94 C 534.1365 396.7504 535.059 383.4651 535.154 370.161 C 535.154 353.586 532.392 335.354 527.419 315.461 C 521.9904 295.9844 514.1992 277.2452 504.219 259.661 C 493.8345 243.21674 480.54196 228.8012 464.992 217.12 C 449.2157 205.81612 430.2552 199.81847 410.848 199.993 C 381.014 199.993 354.49467 206.62267 331.29 219.882 C 308.09 233.694 288.196 250.821 272.726 271.816 C 256.149 292.818 243.994 316.575 235.707 342.54 C 227.33286 366.899 223.03942 392.4738 223 418.232 C 222.92532 438.5949 225.71498 458.86713 231.287 478.453 C 236.812 497.79 245.1 514.917 257.254 529.834 C 268.304 545.304 283.221 557.458 300.9 566.298 C 318.58 575.69 339.574 580.11 363.883 580.11 C 380.13076 580.079 396.29956 577.8487 411.949 573.48 C 428.2592 568.6409 443.5923 560.97364 457.249 550.828 C 462.221 554.695 467.194 558.01 471.614 561.328 L 485.426 570.72 C 489.293 574.035 494.266 576.797 499.791 580.112 C 505.316 583.427 510.841 586.189 516.918 589.504 C 523.04783 592.2295 529.31836 594.6269 535.703 596.686 C 541.3612 598.80185 547.34264 599.9234 553.383 600.001 C 558.355 600.001 563.328 598.901 568.853 597.791 C 573.276 595.58 576.039 592.818 576.039 588.398 Z M 492.613 379.006 C 492.613 398.896 488.746 419.89 481.563 440.884 C 474.30156 462.49043 463.6733 482.81447 450.071 501.105 L 437.364 492.818 C 432.392 489.503 427.419 486.741 422.447 483.426 C 416.922 480.111 411.397 477.349 406.425 474.034 C 400.9 471.824 396.48 470.167 393.718 470.167 C 388.75686 470.10593 383.90996 471.657 379.906 474.587 C 375.486 477.902 373.829 481.769 373.829 486.187 C 373.829 488.397 374.929 491.159 377.696 493.922 C 379.843 496.89834 382.45466 499.51 385.431 501.657 C 388.61235 504.2308 391.93232 506.6284 395.376 508.839 C 397.86122 510.6369 400.44346 512.29674 403.111 513.811 C 405.44467 516.09597 408.2836 517.7993 411.398 518.783 C 414.16 520.44 417.475 522.65 421.898 524.86 C 411.40067 532.59333 401.456 537.56567 392.064 539.777 C 382.8916 542.34317 373.4116 543.6442 363.887 543.644 C 348.417 543.644 335.158 540.329 323.556 532.594 C 311.45134 526.08805 300.896 517.0425 292.613 506.077 C 284.41512 495.02175 278.07088 482.70614 273.829 469.613 C 269.5371 457.5466 267.29643 444.8466 267.2 432.04 C 267.29547 418.7155 268.40366 405.4175 270.515 392.261 C 272.70376 377.6082 276.21818 363.18434 281.015 349.167 C 285.57926 334.56117 291.6913 320.4849 299.247 307.178 C 306.3077 293.99055 315.23996 281.8945 325.766 271.266 C 335.9479 261.15136 347.70283 252.75502 360.573 246.404 C 374.43717 240.06338 389.5285 236.85664 404.773 237.012 C 418.585 237.012 430.74 241.984 441.79 250.824 C 452.84 260.769 461.68 272.371 469.414 286.183 C 477.149 300.548 482.674 316.017 487.094 332.592 C 490.4 349.171 492.613 364.64 492.613 379.006 Z" fill="#707070"/>
          <path d="M 576.039 588.398 C 576.26026 581.31405 573.3006 575.41114 569.962 570.718 C 565.57956 566.4851 560.27816 564.0702 552.835 561.326 M 554.6289 561.47574 L 543.6051 560.55556 C 535.49494 558.9398 524.41986 553.6899 513.056 548.061 C 508.10564 544.8928 503.90066 541.78334 500.349 538.116 M 501.60466 539.12696 L 478.58037 520.58966 C 493.42056 516.05025 499.12694 503.2996 506.974 490.052 C 513.47425 477.9051 518.2084 464.92796 523.549 450.825 C 527.03643 437.5081 529.0153 422.6851 532.392 409.94 C 533.1209 396.41307 536.3002 384.67693 535.154 370.161 C 535.8149 353.5857 533.52825 337.1582 527.419 315.461 C 520.63036 295.06804 513.92884 276.71448 504.219 259.661 C 494.05866 245.15058 478.6057 227.62268 464.992 217.12 C 449.57163 204.90419 428.42166 198.4148 410.848 199.993 C 382.62777 201.15287 356.44146 204.7838 331.29 219.882 C 307.44237 231.07096 286.369 253.225 272.726 271.816 C 258.63818 292.753 241.9474 317.32302 235.707 342.54 C 225.24714 366.8004 220.6506 391.4533 223 418.232 C 221.10846 438.2657 224.23167 458.5165 231.287 478.453 C 235.48795 497.61205 245.1072 514.89114 257.254 529.834 C 268.3222 545.1219 281.4127 556.5266 300.9 566.298 C 318.52648 576.5047 341.4308 580.8461 363.883 580.11 C 380.0868 580.2214 394.7764 577.2864 411.949 573.48 C 428.24503 567.50546 444.57174 560.0634 457.249 550.828 C 462.44024 555.0909 467.67423 557.8751 471.614 561.328 M 469.8132 559.6308 L 485.1968 574.12904 C 488.86956 574.22535 494.61854 576.47714 499.791 580.112 C 504.8631 583.2415 510.4959 586.2138 516.918 589.504 C 523.05207 592.8475 529.0973 594.67266 535.703 596.686 C 540.7758 599.34305 546.8196 599.90035 553.383 600.001 C 557.9257 600.09234 563.863 598.7379 568.853 597.791 C 573.1001 595.4469 576.3259 593.1846 576.039 588.398 M 574.9712 590.53364 L 577.5027 585.47066 M 492.613 379.006 C 491.68 399.1335 489.4752 419.66575 481.563 440.884 C 473.6617 463.42375 465.7084 484.0912 450.071 501.105 M 453.9734 503.4043 L 431.8912 490.3935 C 432.0114 489.43406 427.25495 486.52514 422.447 483.426 C 416.9178 480.6647 410.9973 477.17856 406.425 474.034 C 401.3688 471.99725 396.68535 470.05004 393.718 470.167 C 388.97756 470.184 384.3037 472.10244 379.906 474.587 C 375.11415 478.1871 373.4341 481.9606 373.829 486.187 C 373.65913 488.4203 374.5444 490.80174 377.696 493.922 C 379.6179 496.70546 382.2138 499.3959 385.431 501.657 C 388.67553 504.0286 391.53747 506.39195 395.376 508.839 C 397.77086 510.4489 400.7474 511.9956 403.111 513.811 C 405.3679 516.4096 408.5525 518.0139 411.398 518.783 C 414.4586 520.7359 417.8147 522.4755 421.898 524.86 C 412.34756 531.9574 401.3193 537.3838 392.064 539.777 C 382.8733 543.12 372.99517 543.6082 363.887 543.644 C 347.472 543.2665 335.39596 539.2004 323.556 532.594 C 310.2731 526.2311 301.90765 517.0539 292.613 506.077 C 284.0452 494.4816 279.149 483.9963 273.829 469.613 C 268.44204 456.35567 267.27833 443.7101 267.2 432.04 C 267.88898 417.5523 268.53363 404.3383 270.515 392.261 C 272.6938 377.55593 276.54954 362.51705 281.015 349.167 C 286.20932 335.3728 292.8273 321.8157 299.247 307.178 C 306.68215 293.48437 314.1321 283.23792 325.766 271.266 C 336.01226 262.36352 347.2495 251.51904 360.573 246.404 C 373.62335 240.57725 390.33996 237.67707 404.773 237.012 C 418.69926 236.37227 432.1215 242.9106 441.79 250.824 C 451.59094 261.74098 461.6433 271.73753 469.414 286.183 C 475.9523 300.36504 481.7018 317.5279 487.094 332.592 C 489.21557 350.69046 494.0473 365.4983 492.613 379.006 M 491.0968 382.5799 L 494.7132 374.05548 M 576.039 588.398 C 577.76026 579.81405 574.8006 573.91114 571.462 569.218 C 567.07956 564.9851 561.77816 562.5702 554.335 559.826 M 555.3644 560.8993 L 547.31196 560.4106 C 536.99494 557.4398 525.91986 552.1899 514.556 546.561 C 509.60564 543.3928 505.40066 540.28334 501.849 536.616 M 502.12696 538.65977 L 483.4511 524.01035 C 494.92056 514.55025 500.62694 501.7996 508.474 488.552 C 514.97425 476.4051 519.7084 463.42796 525.049 449.325 C 528.53643 436.0081 530.5153 421.1851 533.892 408.44 C 534.6209 394.91307 537.8002 383.17693 536.654 368.661 C 537.3149 352.0857 535.02825 335.6582 528.919 313.961 C 522.13036 293.56804 515.42884 275.21448 505.719 258.161 C 495.55866 243.65058 480.1057 226.12268 466.492 215.62 C 451.07163 203.40419 429.92166 196.9148 412.348 198.493 C 384.12777 199.65287 357.94146 203.2838 332.79 218.382 C 308.94237 229.57096 287.869 251.725 274.226 270.316 C 260.13818 291.253 243.4474 315.82302 237.207 341.04 C 226.74714 365.3004 222.1506 389.9533 224.5 416.732 C 222.60846 436.7657 225.73167 457.0165 232.787 476.953 C 236.98795 496.11205 246.6072 513.39114 258.754 528.334 C 269.8222 543.6219 282.9127 555.0266 302.4 564.798 C 320.02648 575.0047 342.9308 579.3461 365.383 578.61 C 381.5868 578.7214 396.2764 575.7864 413.449 571.98 C 429.74503 566.00546 446.07174 558.5634 458.749 549.328 C 463.94024 553.5909 469.17423 556.3751 473.114 559.828 M 470.77393 558.6572 L 484.81127 571.5101 C 490.36956 572.72535 496.11854 574.97714 501.291 578.612 C 506.3631 581.7415 511.9959 584.7138 518.418 588.004 C 524.55207 591.3475 530.5973 593.17266 537.203 595.186 C 542.2758 597.84305 548.3196 598.40035 554.883 598.501 C 559.4257 598.59234 565.363 597.2379 570.353 596.291 C 574.6001 593.9469 577.8259 591.6846 577.539 586.898 M 575.5416 589.69384 L 576.70026 587.6036 M 492.613 379.006 C 493.18 397.6335 490.9752 418.16575 483.063 439.384 C 475.1617 461.92375 467.2084 482.5912 451.571 499.605 M 454.6358 502.80294 L 437.5156 492.67235 C 433.5114 487.93406 428.75495 485.02514 423.947 481.926 C 418.4178 479.1647 412.4973 475.67856 407.925 472.534 C 402.8688 470.49725 398.18535 468.55004 395.218 468.667 C 390.47756 468.684 385.8037 470.60244 381.406 473.087 C 376.61415 476.6871 374.9341 480.4606 375.329 484.687 C 375.15913 486.9203 376.0444 489.30174 379.196 492.422 C 381.1179 495.20546 383.7138 497.8959 386.931 500.157 C 390.17553 502.5286 393.03747 504.89195 396.876 507.339 C 399.27086 508.9489 402.2474 510.4956 404.611 512.311 C 406.8679 514.9096 410.0525 516.5139 412.898 517.283 C 415.9586 519.2359 419.3147 520.9755 423.398 523.36 C 413.84756 530.4574 402.8193 535.8838 393.564 538.277 C 384.3733 541.62 374.49517 542.1082 365.387 542.144 C 348.972 541.7665 336.89596 537.7004 325.056 531.094 C 311.7731 524.7311 303.40765 515.5539 294.113 504.577 C 285.5452 492.9816 280.649 482.4963 275.329 468.113 C 269.94204 454.85567 268.77833 442.2101 268.7 430.54 C 269.38898 416.0523 270.03363 402.8383 272.015 390.761 C 274.1938 376.05593 278.04954 361.01705 282.515 347.667 C 287.70932 333.8728 294.3273 320.3157 300.747 305.678 C 308.18215 291.98437 315.6321 281.73792 327.266 269.766 C 337.51226 260.86352 348.7495 250.01904 362.073 244.904 C 375.12335 239.07725 391.83996 236.17707 406.273 235.512 C 420.19926 234.87227 433.6215 241.4106 443.29 249.324 C 453.09094 260.24098 463.1433 270.23753 470.914 284.683 C 477.4523 298.86504 483.2018 316.0279 488.594 331.092 C 490.71557 349.19046 495.5473 363.9983 494.113 377.506 M 491.19726 381.55436 L 492.6983 377.974" stroke="#626263" stroke-linecap="butt" stroke-linejoin="round" stroke-width="12"/>
        </g>
        <g id="Graphic_7">
          <path d="M 816.6 552.9231 C 816.6 548.4351 816.039 542.2641 815.478 533.2881 C 814.356 524.3121 813.795 514.2141 812.673 502.4321 C 811.551 491.2121 809.868 478.3091 808.746 464.2831 L 803.136 422.2071 L 797.526 381.8141 L 790.8 340.3001 L 782.385 299.9071 C 779.019 286.4431 775.653 273.5401 771.726 260.6361 C 769.4028 253.712 766.5908 246.96168 763.311 240.4361 C 759.8592 233.6733 755.7236 227.28193 750.969 221.3621 C 745.9694 215.62158 740.1013 210.69989 733.578 206.7761 C 726.846 203.4101 720.114 201.1661 712.26 201.1661 C 699.918 201.1661 687.576 206.2151 676.36 215.7521 C 664.5787 225.28942 653.3583 237.63176 642.699 252.7791 C 631.0489 269.22402 620.90806 286.68764 612.4 304.9571 C 602.3 324.0311 593.887 343.1061 586.033 361.6191 C 578.175 380.6901 570.882 398.6451 565.272 415.4761 C 559.662 432.8671 555.172 446.8931 552.372 457.5521 C 545.64 455.8691 540.591 454.7471 537.225 453.6251 C 533.5686 452.5959 529.7974 452.0301 526 451.9411 C 521.512 451.9411 518.14533 452.5021 515.9 453.6241 C 513.4564 454.49967 511.3149 456.05714 509.729 458.1121 C 508.4606 460.4728 507.33654 462.9083 506.363 465.4051 C 505.04844 468.12915 503.92473 470.94126 503 473.8211 C 503.8797 477.87307 505.59976 481.6954 508.049 485.0411 C 509.17846 487.8535 511.4076 490.0826 514.22 491.2121 C 516.464 492.8951 520.391 494.0171 524.879 494.5781 C 528.806 495.7001 534.416 496.2611 541.148 496.2611 C 538.904 505.7981 536.66 514.2131 534.977 520.9451 L 530.489 542.8241 C 528.56516 550.02315 527.06624 557.3291 526 564.7041 C 525.09716 571.3976 524.722 578.15176 524.878 584.9041 C 524.878 588.2701 526 589.9531 529.366 592.1971 C 532.3491 594.22666 535.5475 595.91996 538.903 597.2461 C 542.269 598.3681 546.196 599.4901 550.684 600.6121 C 554.611 600.6121 557.977 601.1731 560.221 601.1731 C 565.27 601.1731 570.321 598.3681 574.807 593.8801 C 579.293 589.3921 581.539 584.9041 581.539 580.4161 C 581.539 568.0741 582.1 554.0491 583.222 539.4621 C 584.26256 524.78136 586.1356 510.17153 588.832 495.7031 L 633.713 492.3371 C 647.738 491.2151 661.763 490.0931 675.789 487.8491 C 689.2557 486.16576 703.281 483.92176 717.865 481.1171 C 731.329 478.8731 746.477 475.5071 763.307 471.5801 C 763.3578 480.9537 763.9196 490.3176 764.99 499.6301 C 764.99 509.7301 765.551 517.0211 765.551 520.3871 C 765.4847 523.9658 765.1093 527.53204 764.429 531.0461 C 763.307 534.4121 762.746 538.3391 761.624 541.7051 C 760.43235 544.8029 759.4943 547.9924 758.819 551.2421 C 757.697 554.6081 757.697 557.4131 757.697 560.7791 C 757.697 566.9501 761.063 572.5601 768.356 577.0481 C 775.088 581.5361 781.82 583.7801 789.113 583.7801 C 798.65 583.7801 805.382 580.9751 809.87 574.8041 C 814.4212 568.43046 816.7827 560.75274 816.6 552.9231 Z M 758.82 439.0381 C 732.76635 445.60307 706.35586 450.66046 679.72 454.1851 C 652.614 458.31924 625.2324 460.3822 597.813 460.3561 C 607.3174 425.5767 619.1248 391.4681 633.157 358.2561 C 646.0391 326.27928 663.00965 296.10615 683.645 268.4901 C 689.255 260.6361 694.865 254.4651 700.475 249.9771 C 706.085 245.4891 710.573 243.2451 713.939 243.2451 C 714.5 243.2451 715.622 243.8061 717.866 244.9281 C 719.124 246.11414 720.2523 247.43053 721.232 248.8551 C 724.7935 256.6119 727.6111 264.68908 729.647 272.9781 L 735.818 298.2231 C 737.501 306.6381 739.184 314.4921 740.306 322.3461 C 741.4249 329.89836 742.9248 337.38925 744.8 344.7901 C 747.044 358.8151 749.288 373.9631 751.532 389.6711 C 753.771 405.9391 756.015 422.2081 758.82 439.0381 Z" fill="#707070"/>
          <path d="M 816.6 552.9231 C 816.3904 548.5985 815.6172 541.597 815.478 533.2881 C 814.3462 523.94587 812.9901 514.7359 812.673 502.4321 C 810.4461 490.295 810.6621 479.40956 808.746 464.2831 M 809.12465 467.0634 L 803.1166 422.9482 M 803.9949 428.7702 L 795.8695 376.7996 M 796.9616 383.33453 L 788.1226 339.1676 M 788.7805 342.54355 L 780.7942 300.08743 C 779.5607 285.88497 776.423 273.8056 771.726 260.6361 C 769.8557 253.34025 766.7637 246.92377 763.311 240.4361 C 760.2216 233.36544 756.14775 226.6238 750.969 221.3621 C 745.2197 215.7197 739.6242 210.83165 733.578 206.7761 C 726.45346 203.10537 720.3136 201.6832 712.26 201.1661 C 700.4324 200.56783 686.44515 204.79494 676.36 215.7521 C 663.0651 226.02001 652.0939 238.75192 642.699 252.7791 C 631.278 270.99726 618.9676 285.54755 612.4 304.9571 C 600.87725 323.18975 594.45815 344.7102 586.033 361.6191 C 578.9094 380.3169 570.5772 399.23387 565.272 415.4761 C 561.1693 431.93554 554.4881 446.35987 552.372 457.5521 C 545.0491 456.5053 540.7857 454.5234 537.225 453.6251 C 533.69887 452.4586 529.52385 452.32264 526 451.9411 C 521.12606 451.5269 518.1563 452.6594 515.9 453.6241 C 513.22745 454.63385 511.17746 455.97437 509.729 458.1121 C 508.2235 460.60106 507.3841 462.6811 506.363 465.4051 C 504.8379 467.8775 504.1714 470.70264 503 473.8211 C 504.1656 478.01725 505.25304 481.9616 508.049 485.0411 C 509.25155 487.996 511.47484 489.93075 514.22 491.2121 C 516.38877 492.78 520.10605 494.20965 524.879 494.5781 C 528.9217 495.62275 535.0096 495.68615 541.148 496.2611 C 538.67225 505.5297 536.91164 514.7652 534.977 520.9451 M 535.14486 518.414 L 533.32534 545.8492 C 528.3803 549.7383 526.42814 557.0167 526 564.7041 C 524.9809 571.8494 524.08174 577.8276 524.878 584.9041 C 524.7364 588.3536 526.2827 590.19485 529.366 592.1971 C 532.14645 594.2583 535.5398 596.18376 538.903 597.2461 C 542.34074 598.5424 546.5679 599.17825 550.684 600.6121 C 554.345 600.2776 558.05433 601.0656 560.221 601.1731 C 565.1763 601.23386 570.6627 598.3775 574.807 593.8801 C 579.1563 588.97755 581.5384 585.0331 581.539 580.4161 C 581.8448 567.84314 583.0629 554.4271 583.222 539.4621 C 583.3411 525.0998 587.4217 510.8158 588.832 495.7031 M 583.8485 495.98 L 640.0543 492.8572 C 646.5202 491.79205 663.13985 490.36776 675.789 487.8491 C 689.4444 486.2087 704.6836 482.884 717.865 481.1171 C 731.9269 478.96276 746.7781 474.56973 763.307 471.5801 C 763.204 480.81825 763.5543 490.19424 764.99 499.6301 C 764.7218 509.64333 765.7381 516.9573 765.551 520.3871 C 765.8068 523.7177 765.1829 527.517 764.429 531.0461 C 763.095 534.14976 763.0749 538.1414 761.624 541.7051 C 760.2633 544.6763 759.2531 548.24355 758.819 551.2421 C 757.35445 554.5086 757.8949 557.3797 757.697 560.7791 C 758.0632 566.49096 761.89 572.3536 768.356 577.0481 C 775.2359 580.95965 781.8987 583.51094 789.113 583.7801 C 799.2143 584.2931 804.8392 580.66704 809.87 574.8041 C 814.7426 568.114 816.3192 560.0232 816.6 552.9231 M 817.1143 556.0088 L 815.8681 548.5319 M 758.82 439.0381 C 730.9117 447.25515 708.0626 450.4317 679.72 454.1851 C 652.3782 459.87343 622.8665 460.15926 597.813 460.3561 C 604.3151 428.7506 617.3296 391.6739 633.157 358.2561 C 644.477 326.41397 659.5877 295.99606 683.645 268.4901 C 688.9454 260.3703 695.05425 254.0616 700.475 249.9771 C 706.5378 245.27532 710.8558 243.3762 713.939 243.2451 C 714.4813 243.29903 715.6974 243.58387 717.866 244.9281 C 719.0373 246.25154 720.3699 247.27044 721.232 248.8551 C 724.015 255.76555 727.96115 264.4461 729.647 272.9781 M 728.9167 269.0933 L 735.569 304.4799 C 737.6945 306.9907 738.4885 314.29115 740.306 322.3461 C 741.68695 330.3008 742.6615 336.87007 744.8 344.7901 C 746.6391 360.2079 749.6877 373.40097 751.532 389.6711 C 752.8184 405.8296 757.2495 421.2515 758.82 439.0381 M 760.2878 438.30417 L 755.4993 440.69843 M 816.6 552.9231 C 817.8904 547.0985 817.1172 540.097 816.978 531.7881 C 815.8462 522.44587 814.4901 513.2359 814.173 500.9321 C 811.9461 488.795 812.1621 477.90956 810.246 462.7831 M 809.5669 466.3553 L 804.03695 423.7903 M 804.1398 428.1148 L 796.894 381.0533 M 797.58075 382.6107 L 788.7137 340.4253 M 789.2956 341.83773 L 781.6558 302.14073 C 781.0607 284.38497 777.923 272.3056 773.226 259.1361 C 771.3557 251.84025 768.2637 245.42377 764.811 238.9361 C 761.7216 231.86544 757.64775 225.1238 752.469 219.8621 C 746.7197 214.2197 741.1242 209.33165 735.078 205.2761 C 727.95346 201.60537 721.8136 200.1832 713.76 199.6661 C 701.9324 199.06783 687.94515 203.29494 677.86 214.2521 C 664.5651 224.52001 653.5939 237.25192 644.199 251.2791 C 632.778 269.49726 620.4676 284.04755 613.9 303.4571 C 602.37725 321.68975 595.95815 343.2102 587.533 360.1191 C 580.4094 378.8169 572.0772 397.73387 566.772 413.9761 C 562.6693 430.43554 555.9881 444.85987 553.872 456.0521 C 546.5491 455.0053 542.2857 453.0234 538.725 452.1251 C 535.19887 450.9586 531.02385 450.82264 527.5 450.4411 C 522.62606 450.0269 519.6563 451.1594 517.4 452.1241 C 514.72745 453.13385 512.67746 454.47437 511.229 456.6121 C 509.7235 459.10106 508.8841 461.1811 507.863 463.9051 C 506.3379 466.3775 505.6714 469.20264 504.5 472.3211 C 505.6656 476.51725 506.75304 480.4616 509.549 483.5411 C 510.75155 486.496 512.97484 488.43075 515.72 489.7121 C 517.88877 491.28 521.60605 492.70965 526.379 493.0781 C 530.4217 494.12275 536.5096 494.18615 542.648 494.7611 C 540.17225 504.0297 538.41164 513.2652 536.477 519.4451 M 536.2447 517.68723 L 534.40275 543.3365 C 529.8803 548.2383 527.92814 555.5167 527.5 563.2041 C 526.4809 570.3494 525.58174 576.3276 526.378 583.4041 C 526.2364 586.8536 527.7827 588.69485 530.866 590.6971 C 533.64645 592.7583 537.0398 594.68376 540.403 595.7461 C 543.84074 597.0424 548.0679 597.67825 552.184 599.1121 C 555.845 598.7776 559.55433 599.5656 561.721 599.6731 C 566.6763 599.73386 572.1627 596.8775 576.307 592.3801 C 580.6563 587.47755 583.0384 583.5331 583.039 578.9161 C 583.3448 566.34314 584.5629 552.9271 584.722 537.9621 C 584.8411 523.5998 588.9217 509.3158 590.332 494.2031 M 584.58255 494.9423 L 635.9774 492.12997 C 648.0202 490.29205 664.63985 488.86776 677.289 486.3491 C 690.9444 484.7087 706.1836 481.384 719.365 479.6171 C 733.4269 477.46276 748.2781 473.06973 764.807 470.0801 C 764.704 479.31825 765.0543 488.69424 766.49 498.1301 C 766.2218 508.14333 767.2381 515.4573 767.051 518.8871 C 767.3068 522.2177 766.6829 526.017 765.929 529.5461 C 764.595 532.64976 764.5749 536.6414 763.124 540.2051 C 761.7633 543.1763 760.7531 546.74355 760.319 549.7421 C 758.85445 553.0086 759.3949 555.87967 759.197 559.2791 C 759.5632 564.99096 763.39 570.8536 769.856 575.5481 C 776.7359 579.45965 783.3987 582.01094 790.613 582.2801 C 800.7143 582.7931 806.3392 579.16704 811.37 573.3041 C 816.2426 566.614 817.8192 558.5232 818.1 551.4231 M 817.1453 555.37864 L 816.6111 552.29624 M 758.82 439.0381 C 732.4117 445.75515 709.5626 448.9317 681.22 452.6851 C 653.8782 458.37343 624.3665 458.65926 599.313 458.8561 C 605.8151 427.2506 618.8296 390.1739 634.657 356.7561 C 645.977 324.91397 661.0877 294.49606 685.145 266.9901 C 690.4454 258.8703 696.55425 252.5616 701.975 248.4771 C 708.0378 243.77532 712.3558 241.8762 715.439 241.7451 C 715.9813 241.79903 717.1974 242.08387 719.366 243.4281 C 720.5373 244.75154 721.8699 245.77044 722.732 247.3551 C 725.515 254.26555 729.46115 262.9461 731.147 271.4781 M 729.7908 268.31997 L 736.2632 300.3331 C 739.1945 305.4907 739.9885 312.79115 741.806 320.8461 C 743.18695 328.8008 744.1615 335.37007 746.3 343.2901 C 748.1391 358.7079 751.1877 371.90097 753.032 388.1711 C 754.3184 404.3296 758.7495 419.7515 760.32 437.5381 M 761.1838 437.8462 L 759.7501 438.64837" stroke="#616264" stroke-linecap="butt" stroke-linejoin="round" stroke-width="12"/>
        </g>
      </g>
    </g>
  </g>
</svg>
