<?xml version="1.0" standalone="no"?>
<!DOCTYPE svg PUBLIC "-//W3C//DTD SVG 20010904//EN"
 "http://www.w3.org/TR/2001/REC-SVG-20010904/DTD/svg10.dtd">
<svg version="1.0" xmlns="http://www.w3.org/2000/svg"
 width="700.000000pt" height="700.000000pt" viewBox="0 0 700.000000 700.000000"
 preserveAspectRatio="xMidYMid meet">
<metadata>
Created by potrace 1.11, written by Peter Selinger 2001-2013
</metadata>
<g transform="translate(0.000000,700.000000) scale(0.100000,-0.100000)"
fill="#000000" stroke="none">
<path d="M3397 6994 c-1 -1 -56 -4 -122 -8 -66 -3 -131 -8 -145 -10 -14 -3
-52 -7 -85 -11 -155 -17 -431 -78 -614 -137 -193 -61 -466 -181 -654 -287
-152 -85 -432 -282 -539 -378 -112 -101 -156 -142 -203 -189 -172 -173 -311
-342 -431 -524 -42 -63 -85 -127 -95 -142 -11 -15 -19 -29 -19 -32 0 -3 -14
-29 -31 -58 -43 -71 -131 -248 -164 -328 -15 -36 -33 -78 -40 -95 -58 -131
-162 -483 -180 -610 -3 -22 -8 -47 -10 -55 -7 -23 -35 -214 -40 -273 -2 -28
-7 -81 -10 -117 -6 -72 -7 -415 -1 -470 2 -19 7 -71 10 -116 4 -44 8 -90 10
-101 3 -11 7 -44 11 -74 3 -30 8 -61 10 -69 2 -8 7 -28 10 -45 2 -16 7 -41 10
-55 3 -14 7 -37 10 -51 12 -67 70 -273 107 -383 214 -633 642 -1237 1154
-1626 32 -25 61 -47 64 -51 14 -15 209 -145 310 -206 391 -235 902 -412 1325
-459 28 -3 61 -8 75 -10 123 -22 693 -22 762 0 7 3 40 7 73 11 33 3 71 8 85
10 14 2 39 6 55 9 230 37 513 119 750 218 298 124 585 295 842 500 208 166
480 447 618 638 22 30 42 57 45 60 10 9 145 222 188 295 200 348 367 823 417
1185 3 25 8 52 10 60 4 16 13 104 24 240 8 93 6 497 -2 545 -3 17 -8 62 -12
100 -35 397 -191 891 -407 1284 -193 353 -478 704 -788 973 -495 429 -1201
744 -1825 814 -27 3 -61 7 -74 9 -62 10 -475 26 -484 19z m379 -328 c190 -21
363 -51 509 -87 754 -191 1432 -673 1866 -1329 131 -197 231 -390 314 -605 39
-100 92 -257 100 -295 2 -8 11 -44 20 -80 9 -36 19 -76 21 -90 2 -14 9 -45 14
-70 14 -68 29 -159 36 -220 3 -30 8 -68 10 -85 9 -56 11 -500 3 -575 -20 -185
-18 -172 -45 -320 -31 -175 -124 -489 -179 -607 -8 -17 -15 -34 -15 -38 0 -12
-120 -255 -163 -330 -353 -615 -889 -1091 -1542 -1367 -132 -56 -377 -136
-504 -163 -11 -3 -31 -7 -43 -10 -39 -9 -181 -35 -223 -41 -22 -3 -49 -7 -61
-9 -158 -25 -611 -25 -784 1 -135 20 -287 48 -355 65 -593 148 -1110 445
-1530 879 -247 254 -435 523 -582 830 -79 164 -115 253 -169 420 -48 145 -102
388 -119 530 -3 25 -8 54 -10 66 -8 36 -18 235 -18 354 0 121 10 348 17 359 2
3 7 38 11 76 16 166 97 487 173 690 95 253 214 476 377 710 200 287 462 550
770 773 151 109 390 241 590 327 102 44 342 128 396 139 13 3 49 11 79 20 71
19 256 54 323 62 29 3 63 7 77 10 14 2 68 7 120 10 52 4 96 7 97 9 6 4 364 -3
419 -9z"/>
<path d="M2607 5294 c-1 -1 -47 -5 -102 -8 -92 -6 -177 -16 -265 -31 -139 -24
-345 -114 -510 -223 -76 -51 -255 -217 -334 -311 -80 -94 -256 -378 -317 -509
-41 -90 -156 -435 -165 -497 -3 -27 -9 -59 -12 -70 -13 -50 -11 -478 3 -567
13 -88 23 -126 75 -308 67 -238 280 -533 478 -663 224 -147 391 -199 657 -202
146 -2 269 11 424 45 92 21 285 104 384 167 l39 24 51 -36 c29 -20 77 -61 107
-91 30 -30 66 -57 80 -60 26 -5 111 -44 120 -54 3 -4 50 -29 105 -57 194 -98
403 -145 490 -109 81 34 156 113 175 185 5 20 12 108 15 196 10 247 12 282 31
403 17 109 18 112 43 113 14 1 40 2 56 4 17 2 89 6 160 10 72 3 141 8 155 10
14 2 68 9 120 15 52 6 106 13 120 16 23 4 86 14 180 28 19 3 45 8 56 10 25 5
77 14 132 21 20 3 48 8 62 11 14 2 39 7 55 9 17 3 83 17 147 32 65 14 120 24
122 22 5 -6 18 -186 21 -299 1 -53 -4 -116 -11 -142 -7 -27 -11 -48 -9 -48 2
0 -3 -17 -11 -37 -30 -71 -40 -162 -25 -219 31 -116 199 -213 346 -202 116 10
209 87 245 206 17 54 19 83 15 200 -3 75 -7 147 -9 159 -3 12 -7 62 -11 110
-5 79 -8 107 -20 193 -2 14 -7 70 -10 125 -4 55 -10 102 -15 105 -5 3 -13 48
-19 100 -10 82 -16 131 -25 200 -1 8 -5 26 -9 40 -3 14 -9 43 -12 65 -3 22
-13 83 -21 135 -9 52 -17 113 -19 135 -3 37 -45 245 -65 325 -5 19 -11 54 -14
77 -3 22 -8 52 -10 65 -3 12 -8 34 -10 48 -3 14 -10 50 -16 80 -17 81 -18 88
-24 166 -4 39 -9 82 -11 95 -30 159 -76 293 -146 430 -42 83 -67 118 -124 174
-39 39 -91 83 -114 100 -139 95 -348 98 -496 6 -82 -50 -253 -217 -335 -326
-101 -135 -237 -347 -281 -439 -22 -44 -59 -119 -84 -166 -80 -155 -338 -779
-371 -899 -8 -31 -34 -111 -56 -177 l-41 -122 -39 14 c-22 7 -51 15 -66 17
-19 3 -26 9 -25 23 4 36 13 83 32 171 37 169 46 266 45 493 -1 207 -18 319
-79 505 -106 325 -186 468 -376 674 -139 150 -304 259 -444 292 -45 10 -183
27 -188 23z m90 -484 c67 -33 93 -53 149 -115 94 -105 149 -180 182 -250 35
-73 139 -359 146 -400 46 -273 51 -360 31 -517 -3 -21 -7 -57 -11 -80 -26
-205 -176 -592 -273 -709 l-28 -33 -29 19 c-15 10 -51 37 -79 59 -69 57 -244
155 -302 170 -127 34 -273 -53 -286 -170 -6 -54 11 -90 69 -149 50 -51 234
-184 267 -193 29 -8 20 -18 -41 -45 -91 -41 -169 -58 -282 -62 -132 -4 -219
17 -350 82 -223 113 -398 374 -458 683 -20 106 2 432 41 605 35 152 63 234
145 420 82 186 102 224 177 325 144 198 339 334 539 377 188 41 280 37 393
-17z m2510 -67 c24 -55 55 -164 66 -229 5 -28 22 -122 32 -174 3 -14 9 -36 14
-50 9 -23 35 -139 45 -200 2 -14 11 -59 19 -100 9 -41 19 -102 23 -135 3 -33
8 -62 9 -65 5 -8 19 -104 30 -200 6 -54 30 -205 39 -245 12 -56 17 -133 9
-138 -5 -3 -65 -17 -133 -30 -117 -24 -161 -31 -250 -43 -19 -2 -46 -6 -60 -9
-14 -2 -47 -7 -75 -11 -27 -3 -57 -7 -65 -9 -8 -1 -35 -6 -60 -10 -25 -4 -53
-9 -64 -11 -10 -2 -44 -6 -75 -9 -31 -4 -72 -8 -91 -11 -19 -2 -110 -7 -201
-10 l-167 -6 13 56 c37 157 148 475 225 641 17 39 47 110 66 159 43 112 55
139 112 256 84 173 112 217 316 484 60 78 150 154 184 155 7 1 25 -25 39 -56z
m-1753 -2082 c5 -8 40 -16 126 -28 19 -3 37 -6 38 -8 2 -2 -5 -36 -16 -77 -11
-40 -23 -118 -27 -173 -3 -55 -10 -104 -16 -110 -11 -11 -102 33 -138 66 -11
11 -29 23 -40 27 -10 4 -40 24 -65 45 l-45 38 39 51 c22 27 56 79 76 114 33
59 55 77 68 55z"/>
</g>
</svg>
